<svg xmlns="http://www.w3.org/2000/svg" viewBox="0 0 92 92" width="92" height="92" preserveAspectRatio="xMidYMid slice" style="width: 100%; height: 100%; transform: translate3d(0px, 0px, 0px);"><defs><clipPath id="__lottie_element_2"><rect width="92" height="92" x="0" y="0"></rect></clipPath><linearGradient id="__lottie_element_9" spreadMethod="pad" gradientUnits="userSpaceOnUse" x1="-133.99200439453125" y1="-0.0010000000474974513" x2="132.38400268554688" y2="-0.0010000000474974513"><stop offset="0%" stop-color="rgb(252,94,81)"></stop><stop offset="50%" stop-color="rgb(249,126,99)"></stop><stop offset="100%" stop-color="rgb(245,158,117)"></stop></linearGradient></defs><g clip-path="url(#__lottie_element_2)"><g transform="matrix(0.1710030734539032,0,0,0.1710030734539032,46,46)" opacity="0.8" style="display: block;"><g opacity="1" transform="matrix(1,0,0,1,0,0)"><path fill="rgb(255,255,255)" fill-opacity="1" d=" M0,-159.93600463867188 C0,-159.93600463867188 0,-159.93600463867188 0,-159.93600463867188 C88.26899719238281,-159.93600463867188 159.8260040283203,-88.37899780273438 159.8260040283203,-0.10999999940395355 C159.8260040283203,-0.10999999940395355 159.8260040283203,0.10999999940395355 159.8260040283203,0.10999999940395355 C159.8260040283203,88.37899780273438 88.26899719238281,159.93600463867188 0,159.93600463867188 C0,159.93600463867188 0,159.93600463867188 0,159.93600463867188 C-88.26899719238281,159.93600463867188 -159.8260040283203,88.37899780273438 -159.8260040283203,0.10999999940395355 C-159.8260040283203,0.10999999940395355 -159.8260040283203,-0.10999999940395355 -159.8260040283203,-0.10999999940395355 C-159.8260040283203,-88.37899780273438 -88.26899719238281,-159.93600463867188 0,-159.93600463867188z"></path></g></g><g transform="matrix(0.16944198310375214,0,0,0.16944198310375214,45.99852752685547,46.00018310546875)" opacity="1" style="display: block;"><g opacity="1" transform="matrix(1,0,0,1,0,0)"><path fill="url(#__lottie_element_9)" fill-opacity="1" d=" M-133.18800354003906,0.07699999958276749 C-133.18800354003906,-73.48699951171875 -73.40799713134766,-133.27999877929688 0,-133.27999877929688 C73.40799713134766,-133.27999877929688 133.18800354003906,-73.48699951171875 133.18800354003906,0.07699999958276749 C133.18800354003906,73.48699951171875 73.40799713134766,133.27999877929688 0,133.27999877929688 C-73.40799713134766,133.27999877929688 -133.18800354003906,73.48699951171875 -133.18800354003906,0.07699999958276749z"></path></g></g><g transform="matrix(0.19555282592773438,0,0,0.19555282592773438,47.891334533691406,46.00018310546875)" opacity="1" style="display: block;"><g opacity="1" transform="matrix(1,0,0,1,0,0)"><path fill="rgb(255,255,255)" fill-opacity="1" d=" M38.56800079345703,13.565999984741211 C39.981998443603516,12.151000022888184 41.78300094604492,9.96500015258789 42.167999267578125,9.451000213623047 C44.224998474121094,6.750999927520752 45.25299835205078,3.4079999923706055 45.25299835205078,0.07699999958276749 C45.25299835205078,-3.6649999618530273 44.09700012207031,-7.13700008392334 41.9109992980957,-9.96500015258789 C41.731998443603516,-10.144000053405762 41.380001068115234,-10.527000427246094 40.92300033569336,-11.024999618530273 C40.06800079345703,-11.956000328063965 38.840999603271484,-13.293000221252441 37.667999267578125,-14.465999603271484 C27.12700080871582,-25.7810001373291 -0.38600000739097595,-44.29800033569336 -14.784000396728516,-49.95600128173828 C-16.969999313354492,-50.84400177001953 -22.49799919128418,-52.78499984741211 -25.454999923706055,-52.91400146484375 C-28.283000946044922,-52.91400146484375 -30.982999801635742,-52.270999908447266 -33.55400085449219,-50.98500061035156 C-36.768001556396484,-49.183998107910156 -39.3390007019043,-46.35499954223633 -40.75400161743164,-43.012001037597656 C-41.65399932861328,-40.698001861572266 -43.06700134277344,-33.75400161743164 -43.06700134277344,-33.625 C-44.481998443603516,-26.038000106811523 -45.25299835205078,-13.694000244140625 -45.25299835205078,-0.06400000303983688 C-45.25299835205078,12.935999870300293 -44.481998443603516,24.753000259399414 -43.32500076293945,32.46799850463867 C-43.292999267578125,32.5 -43.18199920654297,33.051998138427734 -43.0099983215332,33.909000396728516 C-42.487998962402344,36.51499938964844 -41.400001525878906,41.944000244140625 -40.2400016784668,44.16999816894531 C-37.4119987487793,49.56999969482422 -31.882999420166016,52.91400146484375 -25.9689998626709,52.91400146484375 C-25.9689998626709,52.91400146484375 -25.454999923706055,52.91400146484375 -25.454999923706055,52.91400146484375 C-21.597999572753906,52.78499984741211 -13.49899959564209,49.44200134277344 -13.49899959564209,49.3129997253418 C0.12800000607967377,43.654998779296875 26.99799919128418,26.038999557495117 37.797000885009766,14.338000297546387 C37.797000885009766,14.338000297546387 38.56800079345703,13.565999984741211 38.56800079345703,13.565999984741211z"></path></g></g></g></svg>